<?xml version="1.0" encoding="utf-8"?>
<!-- Generator: Adobe Illustrator 18.0.0, SVG Export Plug-In . SVG Version: 6.00 Build 0)  -->
<!DOCTYPE svg PUBLIC "-//W3C//DTD SVG 1.1//EN" "http://www.w3.org/Graphics/SVG/1.1/DTD/svg11.dtd">
<svg version="1.1" id="Layer_1" xmlns="http://www.w3.org/2000/svg" xmlns:xlink="http://www.w3.org/1999/xlink" x="0px" y="0px"
	 viewBox="0 0 80 80" enable-background="new 0 0 80 80" xml:space="preserve">
<g>
	<path fill="#174479" d="M18.3,29.2c0-6,2.1-11.1,6.3-15.3S34,7.5,40,7.5s11.1,2.1,15.3,6.3c4.2,4.2,6.3,9.3,6.3,15.3
		c0,3.1-0.5,5.6-1.4,7.6L44.9,69.5c-0.5,0.9-1.1,1.7-2,2.2C42,72.2,41,72.5,40,72.5c-1,0-2-0.3-2.9-0.8c-0.9-0.5-1.5-1.3-2-2.2
		L19.7,36.7C18.8,34.8,18.3,32.2,18.3,29.2z M32.3,21.5c-2.1,2.1-3.2,4.7-3.2,7.7s1.1,5.5,3.2,7.7C34.5,38.9,37,40,40,40
		c3,0,5.5-1.1,7.7-3.2c2.1-2.1,3.2-4.7,3.2-7.7s-1.1-5.5-3.2-7.7c-2.1-2.1-4.7-3.2-7.7-3.2C37,18.3,34.5,19.4,32.3,21.5z"/>
</g>
</svg>
