<?xml version="1.0" encoding="utf-8"?>
<!-- Generator: Adobe Illustrator 18.0.0, SVG Export Plug-In . SVG Version: 6.00 Build 0)  -->
<!DOCTYPE svg PUBLIC "-//W3C//DTD SVG 1.1//EN" "http://www.w3.org/Graphics/SVG/1.1/DTD/svg11.dtd">
<svg version="1.1" id="Layer_1" xmlns="http://www.w3.org/2000/svg" xmlns:xlink="http://www.w3.org/1999/xlink" x="0px" y="0px"
	 viewBox="0 0 80 80" enable-background="new 0 0 80 80" xml:space="preserve">
<g>
	<path fill="#174479" d="M72.7,40C72.7,58,58,72.7,40,72.7S7.3,58,7.3,40S22,7.3,40,7.3S72.7,22,72.7,40z M22.4,46.1
		c-0.7-1.9-1-4-1-6.1c0-2.2,0.4-4.2,1-6.1l-7.1-7.1C13.2,30.8,12,35.3,12,40s1.2,9.2,3.3,13.2L22.4,46.1z M54,40c0-7.7-6.3-14-14-14
		c-7.7,0-14,6.3-14,14s6.3,14,14,14C47.7,54,54,47.7,54,40z M26.8,15.3l7.1,7.1c1.9-0.7,4-1,6.1-1c2.1,0,4.2,0.4,6.1,1l7.1-7.1
		C49.2,13.2,44.7,12,40,12C35.3,12,30.8,13.2,26.8,15.3z M53.2,64.7l-7.1-7.1c-1.9,0.7-3.9,1-6.1,1c-2.1,0-4.2-0.4-6.1-1l-7.1,7.1
		C30.8,66.8,35.3,68,40,68C44.7,68,49.2,66.8,53.2,64.7z M64.7,53.2C66.8,49.2,68,44.7,68,40s-1.2-9.2-3.3-13.2l-7.1,7.1
		c0.7,1.9,1,4,1,6.1s-0.4,4.2-1,6.1L64.7,53.2z"/>
</g>
</svg>
