<?xml version="1.0" encoding="utf-8"?>
<!-- Generator: Adobe Illustrator 18.0.0, SVG Export Plug-In . SVG Version: 6.00 Build 0)  -->
<!DOCTYPE svg PUBLIC "-//W3C//DTD SVG 1.1//EN" "http://www.w3.org/Graphics/SVG/1.1/DTD/svg11.dtd">
<svg version="1.1" id="Layer_1" xmlns="http://www.w3.org/2000/svg" xmlns:xlink="http://www.w3.org/1999/xlink" x="0px" y="0px"
	 viewBox="0 0 80 80" enable-background="new 0 0 80 80" xml:space="preserve">
<g>
	<path fill="#174479" d="M67,42.7c0,17.8-24.9,29-25.9,29.5c-0.3,0.2-0.7,0.3-1.1,0.3c-0.4,0-0.8-0.1-1.1-0.3
		C37.8,71.7,13,60.5,13,42.7V10.2c0-1.5,1.2-2.7,2.7-2.7h48.7c1.5,0,2.7,1.2,2.7,2.7V42.7z M58.9,15.7H40v48.1
		c2.2-1.1,5.6-3.1,9-5.8c4.5-3.6,9.9-9.1,9.9-15.2V15.7z"/>
</g>
</svg>
