<?xml version="1.0" encoding="utf-8"?>
<!-- Generator: Adobe Illustrator 18.0.0, SVG Export Plug-In . SVG Version: 6.00 Build 0)  -->
<!DOCTYPE svg PUBLIC "-//W3C//DTD SVG 1.1//EN" "http://www.w3.org/Graphics/SVG/1.1/DTD/svg11.dtd">
<svg version="1.1" id="Layer_1" xmlns="http://www.w3.org/2000/svg" xmlns:xlink="http://www.w3.org/1999/xlink" x="0px" y="0px"
	 viewBox="0 0 80 80" enable-background="new 0 0 80 80" xml:space="preserve">
<g>
	<path fill="#174479" d="M7.8,45.1l8.9-15.2c0.3-0.4,0.6-0.6,1-0.6l15-0.8c2.5-3,4.9-5.6,7-7.7c5-5,9.7-8.4,14.2-10.2
		c4.5-1.9,10.2-2.8,17.1-2.8c0.4,0,0.7,0.1,1,0.4c0.3,0.3,0.4,0.6,0.4,0.9c0,6.6-1,12.3-3,17.1c-2,4.8-5.4,9.6-10.1,14.3
		c-2.1,2.1-4.7,4.4-7.7,7l-0.8,15c-0.1,0.4-0.3,0.8-0.6,1l-15.2,8.9c-0.2,0.1-0.4,0.2-0.6,0.2c-0.3,0-0.6-0.1-0.9-0.4l-2.5-2.5
		c-0.3-0.4-0.5-0.8-0.3-1.3l3.4-11L22.7,46.1l-11,3.4c-0.1,0-0.2,0-0.4,0c-0.4,0-0.7-0.1-0.9-0.4L8,46.6C7.5,46.1,7.5,45.6,7.8,45.1
		z M57,17.6c-0.7,0.7-1.1,1.6-1.1,2.7c0,1.1,0.4,2,1.1,2.7c0.7,0.7,1.6,1.1,2.7,1.1c1.1,0,2-0.4,2.7-1.1c0.7-0.7,1.1-1.6,1.1-2.7
		c0-1.1-0.4-2-1.1-2.7c-0.7-0.7-1.6-1.1-2.7-1.1C58.7,16.5,57.8,16.9,57,17.6z"/>
</g>
</svg>
