<?xml version="1.0" encoding="utf-8"?>
<!-- Generator: Adobe Illustrator 18.0.0, SVG Export Plug-In . SVG Version: 6.00 Build 0)  -->
<!DOCTYPE svg PUBLIC "-//W3C//DTD SVG 1.1//EN" "http://www.w3.org/Graphics/SVG/1.1/DTD/svg11.dtd">
<svg version="1.1" id="Layer_1" xmlns="http://www.w3.org/2000/svg" xmlns:xlink="http://www.w3.org/1999/xlink" x="0px" y="0px"
	 viewBox="0 0 80 80" enable-background="new 0 0 80 80" xml:space="preserve">
<g>
	<path fill="#00427A" d="M7.5,44.6v-9.4c0-0.3,0.1-0.7,0.3-1c0.2-0.3,0.5-0.5,0.8-0.6l7.9-1.2c0.4-1.3,0.9-2.6,1.7-3.9
		C17,27,15.5,25,13.6,22.8c-0.3-0.3-0.4-0.7-0.4-1c0-0.3,0.1-0.6,0.4-1c0.7-1,2.1-2.5,4.2-4.6c2-2,3.4-3,4-3c0.4,0,0.7,0.1,1.1,0.4
		l5.8,4.5c1.2-0.6,2.5-1.2,3.9-1.6c0.5-3.8,0.9-6.5,1.2-7.9c0.2-0.8,0.7-1.2,1.5-1.2h9.4c0.4,0,0.7,0.1,1,0.4
		c0.3,0.2,0.5,0.5,0.5,0.9l1.2,7.8c1.4,0.5,2.7,1,3.8,1.6l6-4.5c0.3-0.3,0.6-0.4,1-0.4c0.4,0,0.7,0.1,1.1,0.4c3.6,3.4,6,5.8,7,7.2
		c0.2,0.2,0.3,0.5,0.3,0.9c0,0.3-0.1,0.7-0.3,1c-0.4,0.6-1.1,1.5-2.2,2.8c-1,1.3-1.8,2.3-2.3,3c0.7,1.4,1.3,2.8,1.7,4.2l7.8,1.2
		c0.4,0.1,0.7,0.2,0.9,0.5c0.2,0.3,0.3,0.6,0.3,1v9.4c0,0.3-0.1,0.7-0.3,1c-0.2,0.3-0.5,0.5-0.8,0.6l-7.8,1.2
		c-0.5,1.5-1.1,2.8-1.7,3.9c1,1.4,2.5,3.4,4.5,5.8c0.3,0.3,0.4,0.7,0.4,1.1c0,0.4-0.1,0.7-0.4,1c-0.8,1-2.2,2.6-4.2,4.6s-3.4,3-4,3
		c-0.3,0-0.7-0.1-1.1-0.4l-5.8-4.6c-1.2,0.7-2.5,1.2-3.9,1.6c-0.5,3.8-0.9,6.5-1.2,7.9c-0.2,0.8-0.7,1.2-1.5,1.2h-9.4
		c-0.4,0-0.7-0.1-1-0.4c-0.3-0.2-0.5-0.5-0.5-0.9l-1.2-7.8c-1.4-0.5-2.7-1-3.8-1.6l-6,4.5c-0.3,0.3-0.6,0.4-1.1,0.4
		c-0.4,0-0.7-0.2-1.1-0.5c-3.6-3.2-5.9-5.6-7-7.1c-0.2-0.3-0.3-0.6-0.3-1c0-0.3,0.1-0.7,0.3-1c0.4-0.6,1.1-1.5,2.2-2.8
		s1.8-2.3,2.3-3c-0.8-1.4-1.3-2.8-1.7-4.2l-7.8-1.1c-0.4-0.1-0.7-0.2-0.9-0.5C7.6,45.3,7.5,45,7.5,44.6z M32.3,32.3
		c-2.1,2.1-3.2,4.7-3.2,7.7s1.1,5.5,3.2,7.7c2.1,2.1,4.7,3.2,7.7,3.2s5.5-1.1,7.7-3.2s3.2-4.7,3.2-7.7s-1.1-5.5-3.2-7.7
		S43,29.2,40,29.2S34.5,30.2,32.3,32.3z"/>
</g>
</svg>
